<?xml version="1.0" encoding="iso-8859-1"?>
<!-- Generator: Adobe Illustrator 21.0.0, SVG Export Plug-In . SVG Version: 6.00 Build 0)  -->
<svg xmlns="http://www.w3.org/2000/svg" xmlns:xlink="http://www.w3.org/1999/xlink" version="1.1" id="Capa_1" x="0px" y="0px" viewBox="0 0 510.911 510.911" style="enable-background:new 0 0 510.911 510.911;" xml:space="preserve" width="512" height="512">
<g>
	<g>
		<path style="fill:#FFDF78;" d="M391.455,135.411l24,8l-8-64c-24,24-48,48-48,80s16,64,16,96s-40,56-72,56s-32-40-32-40v-176h24    l-40-88l-40,88h24v176c0,0,0,40-32,40s-72-24-72-56s16-64,16-96s-24-56-48-80l-8,64l24-8c16,48-24,72-24,144s96,88,128,88v136h64    v-136c32,0,128-16,128-88S375.455,183.411,391.455,135.411z"/>
		<g>
			<path style="fill:#FFBF41;" d="M415.455,143.411l-2.073-16.584c-1.212,5.346-1.731,10.418-1.7,15.326L415.455,143.411z"/>
			<path style="fill:#FFBF41;" d="M239.455,271.411c0,0-0.002,12.807-5.8,23.928c29.794-1.794,29.8-39.928,29.8-39.928l0.364-229.6     l-8.364-18.4l-40,88h24V271.411z"/>
			<path style="fill:#FFBF41;" d="M247.455,503.411v-152c-32,0-128-16-128-88c0-69.211,36.951-86.685,18.496-144.782     c-9.14-13.859-21.816-26.539-34.496-39.218l-8,64l24-8c16,48-24,72-24,144s96,88,128,88v136H247.455z"/>
		</g>
		<path style="fill:#FF9C4E;" d="M287.455,463.411h-64c-8.837,0-16-7.163-16-16v-32c0-8.837,7.163-16,16-16h64    c8.837,0,16,7.163,16,16v32C303.455,456.247,296.292,463.411,287.455,463.411z"/>
		<path style="fill:#FF8421;" d="M239.455,447.411v-32c0-8.836,7.163-16,16-16h-32c-8.837,0-16,7.164-16,16v32    c0,8.836,7.163,16,16,16h32C246.619,463.411,239.455,456.247,239.455,447.411z"/>
		<path style="fill:#FF749F;" d="M255.455,311.411c0,0-16,8-16,24s16,24,16,24s16-8,16-24S255.455,311.411,255.455,311.411z"/>
	</g>
	<g>
		<path d="M396.564,145.019l16.52,5.507c5.144,1.715,10.486-2.67,9.814-8.046l-8-64c-0.759-6.064-8.415-8.704-12.746-4.373    c-24.678,24.679-50.196,50.197-50.196,85.304c0,16.923,4.181,33.646,8.224,49.819c3.999,15.995,7.776,31.104,7.776,46.181    c0,26.866-35.285,48.5-64.5,48.5c-24.052,0-24.493-31.191-24.5-32.5V163.705c0-4.143-3.357-7.5-7.5-7.5s-7.5,3.357-7.5,7.5    v107.706c0,0.468,0.052,11.573,4.536,22.785c6.375,15.938,18.792,24.715,34.964,24.715c17.535,0,37.108-6.504,52.359-17.397    c17.502-12.501,27.141-28.874,27.141-46.103c0-16.923-4.181-33.646-8.224-49.819c-3.999-15.995-7.776-31.104-7.776-46.181    c0-24.393,15.858-44.051,34.972-63.757l4.61,36.879l-12.71-4.237c-3.932-1.308-8.178,0.813-9.487,4.743    c-9.289,27.869-1.532,48.112,7.449,71.553c7.577,19.775,16.166,42.188,16.166,74.819c0,27.916-16.034,49.515-47.658,64.197    c-27.718,12.869-58.829,16.303-72.842,16.303c-4.143,0-7.5,3.357-7.5,7.5v24.5h-49v-24.5c0-4.143-3.358-7.5-7.5-7.5    c-14.013,0-45.124-3.434-72.842-16.303c-31.624-14.683-47.658-36.281-47.658-64.197c0-32.631,8.588-55.044,16.166-74.819    c8.982-23.44,16.739-43.684,7.449-71.553c-1.31-3.93-5.556-6.05-9.487-4.743l-12.71,4.236l4.61-36.877    c19.113,19.705,34.972,39.363,34.972,63.756c0,15.077-3.777,30.186-7.776,46.181c-4.043,16.173-8.224,32.896-8.224,49.819    c0,17.229,9.639,33.602,27.141,46.103c15.251,10.894,34.825,17.397,52.359,17.397c16.171,0,28.588-8.777,34.963-24.715    c4.485-11.212,4.537-22.317,4.537-22.785v-176c0-4.143-3.358-7.5-7.5-7.5h-12.353l28.353-62.375l28.353,62.375h-12.353    c-4.143,0-7.5,3.357-7.5,7.5v31.588c0,4.143,3.357,7.5,7.5,7.5s7.5-3.357,7.5-7.5v-24.088h16.5c5.354,0,9.047-5.72,6.828-10.604    l-40-88c-2.611-5.741-11.045-5.745-13.656,0l-40,88c-2.22,4.883,1.474,10.604,6.828,10.604h16.5v168.48    c-0.007,1.328-0.448,32.52-24.5,32.52c-29.215,0-64.5-21.634-64.5-48.5c0-15.077,3.777-30.186,7.776-46.181    c4.043-16.173,8.224-32.896,8.224-49.819c0-35.106-25.519-60.625-50.197-85.304c-4.331-4.329-11.987-1.692-12.745,4.373l-8,64    c-0.672,5.372,4.67,9.765,9.813,8.046l16.52-5.507c4.199,19.149-1.569,34.206-9.232,54.205    c-7.645,19.951-17.159,44.78-17.159,80.187c0,72.969,87.923,93.009,128,95.273v18.461c-9.29,3.138-16,11.93-16,22.266v32    c0,10.335,6.71,19.127,16,22.266v33.734c0,4.143,3.358,7.5,7.5,7.5s7.5-3.357,7.5-7.5v-32.5h49v32.5c0,4.143,3.357,7.5,7.5,7.5    s7.5-3.357,7.5-7.5v-33.734c9.29-3.138,16-11.93,16-22.266v-32c0-10.335-6.71-19.127-16-22.266v-18.461    c40.077-2.265,128-22.305,128-95.273c0-35.406-9.515-60.235-17.159-80.187C398.133,179.225,392.365,164.169,396.564,145.019z     M287.455,455.911h-64c-4.687,0-8.5-3.813-8.5-8.5v-8.5h81v8.5C295.955,452.097,292.142,455.911,287.455,455.911z     M295.955,423.911h-81v-8.5c0-4.687,3.813-8.5,8.5-8.5h64c4.687,0,8.5,3.813,8.5,8.5V423.911z"/>
		<path d="M231.955,335.411c0,20.4,19.323,30.297,20.146,30.708c1.056,0.528,2.205,0.792,3.354,0.792s2.299-0.264,3.354-0.792    c0.822-0.411,20.146-10.308,20.146-30.708s-19.323-30.297-20.146-30.708c-2.111-1.057-4.597-1.057-6.708,0    C251.279,305.114,231.955,315.01,231.955,335.411z M255.455,320.356c3.516,2.728,8.5,7.863,8.5,15.055    c0,7.197-4.993,12.336-8.498,15.057c-3.516-2.728-8.502-7.864-8.502-15.057C246.955,328.219,251.94,323.084,255.455,320.356z"/>
	</g>
</g>















</svg>
